<?xml version="1.0" encoding="UTF-8"?>
<!DOCTYPE svg PUBLIC "-//W3C//DTD SVG 1.1//EN" "http://www.w3.org/Graphics/SVG/1.1/DTD/svg11.dtd">
<!-- Creator: CorelDRAW X7 -->
<svg xmlns="http://www.w3.org/2000/svg" xml:space="preserve" width="5.4374mm" height="4.8851mm" version="1.1" style="shape-rendering:geometricPrecision; text-rendering:geometricPrecision; image-rendering:optimizeQuality; fill-rule:evenodd; clip-rule:evenodd"
viewBox="0 0 135 121"
 xmlns:xlink="http://www.w3.org/1999/xlink">
 <defs>
  <style type="text/css">
   <![CDATA[
    .fil0 {fill:#7AB0CF}
    .fil1 {fill:#446599}
   ]]>
  </style>
 </defs>
 <g id="Camada_x0020_1">
  <metadata id="CorelCorpID_0Corel-Layer"/>
  <path class="fil0" d="M35 51l-29 0c-3,0 -6,3 -6,7l0 56c0,0 0,0 0,0 1,4 4,7 8,7l36 0c4,0 6,-3 6,-6l-8 -59c0,0 0,0 0,0 -1,-3 -4,-5 -7,-5z"/>
  <path class="fil1" d="M135 75c-1,-4 -3,-7 -6,-9 3,-2 4,-4 4,-7 0,-3 -1,-9 -4,-13 -2,-2 -6,-5 -12,-5l-26 0c0,-4 0,-10 1,-15 0,-8 -4,-17 -8,-22 -3,-2 -5,-4 -7,-4 -1,0 -2,0 -2,0 -5,0 -11,2 -12,6 0,2 0,4 1,6 0,3 1,6 0,11 -1,8 -13,27 -17,31l8 60c5,2 18,7 24,7l33 0c2,0 9,-1 12,-7 1,-3 0,-6 -1,-8 0,-1 0,-1 0,-1 0,0 0,0 0,0 4,-1 7,-4 8,-8 1,-5 -1,-8 -2,-10 4,-2 6,-6 6,-12z"/>
 </g>
</svg>
