<?xml version="1.0" encoding="UTF-8"?>
<!DOCTYPE svg PUBLIC "-//W3C//DTD SVG 1.1//EN" "http://www.w3.org/Graphics/SVG/1.1/DTD/svg11.dtd">
<!-- Creator: CorelDRAW X7 -->
<svg xmlns="http://www.w3.org/2000/svg" xml:space="preserve" width="4.8517mm" height="3.2281mm" version="1.1" style="shape-rendering:geometricPrecision; text-rendering:geometricPrecision; image-rendering:optimizeQuality; fill-rule:evenodd; clip-rule:evenodd"
viewBox="0 0 37 24"
 xmlns:xlink="http://www.w3.org/1999/xlink">
 <defs>
  <style type="text/css">
   <![CDATA[
    .fil0 {fill:#7AB0CF}
   ]]>
  </style>
 </defs>
 <g id="Camada_x0020_1">
  <metadata id="CorelCorpID_0Corel-Layer"/>
  <path class="fil0" d="M0 22l16 -9 -16 -10 0 19c0,0 0,0 0,0z"/>
  <path class="fil0" d="M17 13l-17 10c1,1 2,1 3,1l31 0c1,0 2,0 3,-1l-17 -10 -1 1 -2 -1z"/>
  <path class="fil0" d="M37 22l0 -18 -16 9 16 9c0,0 0,0 0,0z"/>
  <path class="fil0" d="M3 0c-2,0 -3,1 -3,3l0 0 19 11 18 -11 0 0c0,-2 -1,-3 -3,-3l-31 0z"/>
 </g>
</svg>
