<?xml version="1.0" encoding="UTF-8"?>
<!DOCTYPE svg PUBLIC "-//W3C//DTD SVG 1.1//EN" "http://www.w3.org/Graphics/SVG/1.1/DTD/svg11.dtd">
<!-- Creator: CorelDRAW X7 -->
<svg xmlns="http://www.w3.org/2000/svg" xml:space="preserve" width="223.52mm" height="54.7716mm" version="1.1" style="shape-rendering:geometricPrecision; text-rendering:geometricPrecision; image-rendering:optimizeQuality; fill-rule:evenodd; clip-rule:evenodd"
viewBox="0 0 11707 2869"
 xmlns:xlink="http://www.w3.org/1999/xlink">
 <defs>
  <style type="text/css">
   <![CDATA[
    .fil0 {fill:#91D8F7}
    .fil1 {fill:#FEFEFE;fill-rule:nonzero}
   ]]>
  </style>
 </defs>
 <g id="Camada_x0020_1">
  <metadata id="CorelCorpID_0Corel-Layer"/>
  <g id="_391784504">
   <g>
    <polygon class="fil0" points="12,2147 0,716 1212,0 1720,248 543,970 543,1558 2188,571 2482,716 2476,999 237,2297 "/>
    <polygon class="fil0" points="1229,2869 779,2557 2459,1558 2465,2164 "/>
   </g>
   <path class="fil1" d="M3935 1335l842 0 0 -301 -842 0c-464,0 -842,378 -842,842 0,465 378,843 842,843l842 0 0 -924 -842 0 0 300 541 0 0 323 -541 0c-298,0 -541,-243 -541,-542 0,-298 243,-541 541,-541zm1588 1080c-106,-14 -190,-98 -204,-204l0 -1177 -301 0 0 1148c0,84 19,164 55,236 51,106 137,192 243,245 72,36 152,56 236,56l854 0 0 -301 -883 -3zm2591 3l-705 -1384 -705 1384 -154 301 337 0 154 -301 368 -722 369 722 154 301 336 0 -154 -301zm1759 -919l0 -10c0,-250 -204,-455 -454,-455l-684 0c-250,0 -452,205 -452,455l0 10c0,96 29,185 79,257 17,27 36,51 58,72 82,80 192,128 315,128l607 0c127,0 233,103 233,231 0,127 -106,231 -233,231l-527 0c-128,0 -231,-104 -231,-231l-301 0c0,293 238,532 532,532l527 0c293,0 531,-239 531,-532 0,-128 -45,-246 -120,-337 -7,-7 -12,-14 -19,-22 -97,-106 -236,-173 -392,-173l-607 0c-84,0 -154,-70 -154,-154l0 -10c0,-84 70,-154 154,-154l684 0c84,0 153,70 153,154l0 10 301 -2zm1834 0l0 -10c0,-250 -205,-455 -455,-455l-683 0c-251,0 -453,205 -453,455l0 10c0,96 29,185 80,257 17,27 36,51 57,72 82,80 193,128 316,128l606 0c127,0 233,103 233,231 0,127 -106,231 -233,231l-527 0c-127,0 -231,-104 -231,-231l-301 0c0,293 238,532 532,532l527 0c294,0 532,-239 532,-532 0,-128 -46,-246 -121,-337 -7,-7 -12,-14 -19,-22 -96,-106 -236,-173 -392,-173l-606 0c-85,0 -154,-70 -154,-154l0 -10c0,-84 69,-154 154,-154l683 0c84,0 154,70 154,154l0 10 301 -2z"/>
  </g>
 </g>
</svg>
