<?xml version="1.0" encoding="UTF-8"?>
<!DOCTYPE svg PUBLIC "-//W3C//DTD SVG 1.1//EN" "http://www.w3.org/Graphics/SVG/1.1/DTD/svg11.dtd">
<!-- Creator: CorelDRAW X7 -->
<svg xmlns="http://www.w3.org/2000/svg" xml:space="preserve" width="5.9932mm" height="5.9925mm" version="1.1" style="shape-rendering:geometricPrecision; text-rendering:geometricPrecision; image-rendering:optimizeQuality; fill-rule:evenodd; clip-rule:evenodd"
viewBox="0 0 192 192"
 xmlns:xlink="http://www.w3.org/1999/xlink">
 <defs>
  <style type="text/css">
   <![CDATA[
    .fil0 {fill:#7AB0CF}
   ]]>
  </style>
 </defs>
 <g id="Camada_x0020_1">
  <metadata id="CorelCorpID_0Corel-Layer"/>
  <path class="fil0" d="M105 65c-3,-2 -7,-2 -9,-3 -2,-1 -5,-7 -21,-3 2,5 10,-2 18,8 8,2 14,-1 17,3 3,2 6,0 7,-3 0,-4 -10,-1 -12,-2z"/>
  <path class="fil0" d="M183 65c1,3 1,5 2,8 0,9 -11,13 -12,17 0,0 0,0 0,1 2,0 3,1 4,4 3,12 2,16 -2,16 -3,0 -5,-5 -7,-11 -1,0 -2,-1 -3,-3 -3,-5 -7,-19 -13,-20 -2,-1 -3,3 -3,7 -1,3 1,7 1,7 0,0 -3,1 -3,3 -1,2 -4,0 -6,0 -4,2 -8,-1 -8,-6 -3,-5 -5,-10 -9,-8 3,4 4,18 8,22 9,0 11,-8 8,5 0,3 -1,6 -2,8 0,5 -1,7 -2,8 -2,2 -6,5 -7,6 1,2 -1,3 -2,4 0,1 0,1 0,1 0,1 2,2 4,2 5,-1 13,-3 7,4 -2,2 -4,4 -6,5 0,0 1,1 0,1 0,1 -1,4 -2,4 1,2 0,2 -1,1 -2,1 -2,0 -3,-2 0,0 0,-1 -1,-1 0,0 0,-1 0,-1 0,-1 0,-1 0,-2l0 0c-1,-1 -1,-3 -2,-3 -6,-2 -3,7 -11,16 -13,10 -15,1 -22,-8 -6,-8 4,-10 2,-26 -6,-3 -10,-14 -10,-14 0,0 -2,0 -4,0 -1,0 0,1 -2,1 -2,0 -5,-1 -7,-1 -2,0 -3,1 -4,0 0,0 -3,0 -5,1 -1,1 -3,1 -4,-1 0,0 -10,-14 -8,-24 2,-9 7,-12 15,-19 -1,-6 -6,-2 -5,-9 1,-12 11,-3 13,-11 0,-2 -1,-3 -2,-3 -3,0 -6,2 -8,2 -3,-1 -5,-1 -2,-4l0 0c0,0 0,-1 1,-1 1,-2 2,-3 4,-4 0,-1 1,-2 1,-2 1,-3 3,-6 6,-5 3,2 1,4 1,6 2,12 6,10 7,8 -1,-4 10,-2 6,-4 -1,-1 -1,-1 -2,-1 0,-1 -1,-2 -1,-3 1,0 0,-1 0,-2 0,-1 0,-2 1,-3 0,0 0,-1 0,-1 0,0 0,0 0,0 0,-1 1,-3 2,-4 0,0 0,0 0,0 2,-2 4,-3 6,-4 0,-1 0,-1 0,-1 0,-1 3,0 3,0l0 0c2,-1 3,-1 5,-1 0,0 0,0 0,0 1,0 3,-1 3,-1 0,0 3,0 3,1l0 0c1,0 1,0 1,0 1,0 2,0 3,-1 1,0 2,2 3,3 2,1 2,3 2,5 4,0 16,-8 16,-8 0,0 15,4 13,8 -2,-1 -9,-3 -18,0 -2,1 5,4 13,4 20,0 37,21 45,34zm1 59c-5,14 -12,27 -23,37 -2,3 -5,5 -8,8 -1,0 -1,0 -2,0 2,-11 4,-15 10,-18 7,-2 8,-6 8,-12 0,-8 11,-13 15,-16 0,1 0,1 0,1zm-139 -86c0,0 0,0 0,0 0,3 -2,6 -7,9 0,0 0,0 0,0 -1,1 -6,3 -6,4 -1,2 -2,2 -4,3 -1,0 -5,3 -6,4 -1,1 -1,0 -5,1l0 0c-2,1 -4,2 -6,2 4,-11 11,-21 19,-30 3,-2 6,-4 9,-6l7 -4c-1,3 -1,5 -3,7 0,2 3,7 2,10zm-10 110c3,4 -7,6 -5,9 2,2 4,5 5,8 -1,-1 -3,-2 -4,-4 -15,-14 -25,-34 -27,-56 7,4 18,21 31,25 3,2 -2,14 0,18zm61 -148c-53,0 -96,43 -96,96 0,53 43,96 96,96 53,0 96,-43 96,-96 0,-53 -43,-96 -96,-96z"/>
 </g>
</svg>
