<?xml version="1.0" encoding="UTF-8"?>
<!DOCTYPE svg PUBLIC "-//W3C//DTD SVG 1.1//EN" "http://www.w3.org/Graphics/SVG/1.1/DTD/svg11.dtd">
<!-- Creator: CorelDRAW X7 -->
<svg xmlns="http://www.w3.org/2000/svg" xml:space="preserve" width="13.0221mm" height="8.8787mm" version="1.1" style="shape-rendering:geometricPrecision; text-rendering:geometricPrecision; image-rendering:optimizeQuality; fill-rule:evenodd; clip-rule:evenodd"
viewBox="0 0 466 317"
 xmlns:xlink="http://www.w3.org/1999/xlink">
 <defs>
  <style type="text/css">
   <![CDATA[
    .fil1 {fill:#7AB0CF}
    .fil0 {fill:#446599}
   ]]>
  </style>
 </defs>
 <g id="Camada_x0020_1">
  <metadata id="CorelCorpID_0Corel-Layer"/>
  <path class="fil0" d="M175 132c0,-32 26,-58 58,-58 32,0 58,26 58,58 0,32 -26,58 -58,58 -32,0 -58,-26 -58,-58zm102 66c21,-14 35,-38 35,-66 0,-44 -35,-79 -79,-79 -44,0 -80,35 -80,79 0,28 15,52 36,66 -48,18 -83,65 -83,119l21 0c0,-58 47,-105 106,-105 58,0 106,47 106,105l21 0c0,-54 -35,-101 -83,-119z"/>
  <path class="fil1" d="M382 145c22,-14 36,-38 36,-66 0,-43 -36,-79 -79,-79 -22,0 -41,8 -55,22 -5,5 -10,11 -14,17 7,3 13,6 19,10 4,-6 9,-11 14,-16 10,-7 22,-12 36,-12 32,0 58,26 58,58 0,27 -18,49 -43,56 -5,2 -10,3 -15,3 -2,0 -4,-1 -6,-1 0,8 -2,15 -4,22 3,0 6,0 10,0 4,0 8,0 12,1 53,6 93,50 93,105l22 0c0,-55 -35,-102 -84,-120z"/>
  <path class="fil1" d="M127 159c3,0 6,0 9,0 -2,-7 -3,-14 -3,-22 -2,0 -4,1 -6,1 -5,0 -11,-1 -16,-3 -24,-7 -42,-29 -42,-56 0,-32 26,-58 58,-58 13,0 26,5 35,12 6,5 11,10 15,16 5,-4 12,-7 18,-10 -4,-6 -8,-12 -13,-17 -15,-14 -34,-22 -55,-22 -44,0 -79,36 -79,79 0,28 14,52 35,66 -48,18 -83,65 -83,120l21 0c0,-55 41,-99 93,-105 4,-1 9,-1 13,-1z"/>
 </g>
</svg>
