<?xml version="1.0" encoding="UTF-8"?>
<!DOCTYPE svg PUBLIC "-//W3C//DTD SVG 1.1//EN" "http://www.w3.org/Graphics/SVG/1.1/DTD/svg11.dtd">
<!-- Creator: CorelDRAW X7 -->
<svg xmlns="http://www.w3.org/2000/svg" xml:space="preserve" width="6.8724mm" height="6.3546mm" version="1.1" style="shape-rendering:geometricPrecision; text-rendering:geometricPrecision; image-rendering:optimizeQuality; fill-rule:evenodd; clip-rule:evenodd"
viewBox="0 0 101 94"
 xmlns:xlink="http://www.w3.org/1999/xlink">
 <defs>
  <style type="text/css">
   <![CDATA[
    .fil0 {fill:#7AB0CF}
   ]]>
  </style>
 </defs>
 <g id="Camada_x0020_1">
  <metadata id="CorelCorpID_0Corel-Layer"/>
  <path class="fil0" d="M88 32c1,-1 1,-3 -1,-3l-6 -3c-2,0 -3,-2 -2,-4l2 -6c1,-2 0,-3 -2,-3l-7 1c-2,1 -3,-1 -3,-3l-1 -6c0,-2 -2,-3 -3,-2l-6 4c-1,2 -3,1 -4,0l-4 -6c-1,-1 -3,-1 -4,0l-2 6c-1,2 -3,3 -5,2l-6 -3c-1,-1 -3,0 -3,2l1 6c0,2 -2,4 -4,4l-6 0c-2,0 -3,1 -2,2l3 6c1,2 1,4 -1,5l-6 3c-2,1 -2,2 0,3l5 4c2,1 2,3 1,5l-4 5c-1,2 0,3 2,3l7 1c1,0 3,1 3,3l-1 7c-1,2 1,3 2,2l7 -3c1,0 3,1 4,2l2 7c1,1 2,2 4,0l4 -5c1,-1 3,-2 4,0l5 4c2,1 3,1 4,-1l1 -6c0,-2 2,-3 4,-3l7 2c1,0 2,-1 2,-3l-2 -6c0,-2 1,-4 2,-4l7 -2c2,0 2,-2 1,-3l-5 -5c-1,-1 -1,-3 1,-5l5 -4z"/>
  <path class="fil0" d="M79 57l2 6c1,2 0,3 -2,3l-7 -2c-1,0 -3,1 -4,3l-1 5 19 22 2 -13 13 -1 -22 -24c0,0 0,1 0,1z"/>
  <path class="fil0" d="M35 67l-6 3c-2,0 -3,-1 -3,-2l1 -7c0,-2 -1,-4 -3,-4l-1 0 -23 21 13 2 0 13 27 -24 -1 0c0,-2 -2,-3 -4,-2z"/>
 </g>
</svg>
